<?xml version="1.0" encoding="UTF-8" ?>
<!DOCTYPE svg PUBLIC "-//W3C//DTD SVG 1.1//EN" "http://www.w3.org/Graphics/SVG/1.1/DTD/svg11.dtd">
<svg width="894pt" height="681pt" viewBox="0 0 894 681" version="1.1" xmlns="http://www.w3.org/2000/svg">
<path fill="#ee2d24" d=" M 0.00 0.00 L 894.00 0.00 L 894.00 681.00 L 0.00 681.00 L 0.00 0.00 Z" />
<path fill="#ffffff" d=" M 763.80 117.29 C 767.06 117.36 768.40 113.81 770.27 111.77 C 772.84 113.76 772.56 117.18 773.10 120.05 C 773.82 126.03 774.85 131.97 775.41 137.97 C 774.75 137.98 773.43 138.00 772.76 138.00 C 768.70 129.67 761.79 122.13 752.54 119.78 C 744.86 117.95 735.80 118.19 729.45 123.42 C 721.05 130.77 722.25 145.41 730.66 152.31 C 741.75 162.11 757.75 161.87 769.77 170.00 C 777.42 174.61 783.73 182.01 785.34 190.98 C 787.17 201.23 785.73 212.69 779.11 221.04 C 773.21 228.30 764.04 231.97 755.02 233.45 C 745.27 234.89 735.03 234.69 725.71 231.17 C 721.20 229.77 717.07 226.92 712.26 226.70 C 709.29 226.63 707.82 229.66 705.73 231.24 C 703.74 231.71 703.12 229.58 703.26 228.04 C 703.21 220.01 703.32 211.99 703.23 203.97 C 703.30 202.03 703.00 199.92 704.07 198.18 C 704.80 198.06 706.27 197.81 707.00 197.69 C 709.49 206.50 713.37 215.43 720.92 221.09 C 729.05 227.42 740.01 229.50 750.05 227.69 C 757.19 226.37 763.94 221.75 766.69 214.87 C 768.73 209.62 769.17 203.77 768.12 198.25 C 766.87 192.08 762.26 187.10 756.83 184.19 C 744.07 177.22 728.77 175.14 717.46 165.52 C 710.81 160.12 707.08 151.59 707.23 143.06 C 706.86 135.22 709.79 127.04 716.00 122.02 C 725.17 114.58 737.72 112.77 749.16 114.16 C 754.15 114.68 758.78 116.99 763.80 117.29 Z" />
<path fill="#ffffff" d=" M 105.75 119.45 C 105.74 117.34 106.26 115.31 107.68 113.70 C 138.16 113.88 168.64 113.70 199.11 113.78 C 200.82 113.82 202.48 114.30 204.13 114.71 C 204.18 116.24 204.27 117.76 204.39 119.29 C 198.01 120.86 191.08 120.71 185.27 124.18 C 176.31 128.89 172.25 139.36 172.00 149.03 C 171.05 174.36 171.32 199.71 170.97 225.05 C 170.83 227.82 170.97 230.67 172.54 233.07 C 177.61 230.14 181.98 226.21 186.36 222.37 C 205.20 205.27 222.85 186.90 239.90 168.03 C 248.03 158.90 255.71 149.19 261.18 138.20 C 263.44 133.85 263.56 127.59 259.30 124.41 C 254.33 121.05 248.01 121.37 242.46 119.67 C 239.21 118.27 240.47 113.48 243.89 113.53 C 259.93 113.76 275.97 115.21 292.02 114.56 C 301.68 114.75 311.33 113.74 320.98 113.86 C 323.60 113.92 323.46 117.04 323.52 118.93 C 305.19 124.25 289.86 136.21 275.70 148.57 C 251.13 171.03 227.89 194.88 204.83 218.85 C 230.41 249.04 255.92 279.30 282.26 308.83 C 289.71 316.98 296.95 325.34 305.05 332.86 C 312.30 339.07 320.66 344.32 330.03 346.56 C 335.36 347.88 340.87 348.12 346.29 348.92 C 346.53 350.71 347.81 352.98 345.81 354.25 C 344.29 354.76 342.66 354.72 341.08 354.76 C 319.65 354.70 298.22 354.77 276.79 354.72 C 254.63 328.06 232.31 301.53 209.39 275.52 C 201.06 266.25 192.88 256.81 183.93 248.12 C 181.13 245.46 177.71 242.06 173.46 243.21 C 171.10 243.96 171.01 246.76 170.82 248.80 C 170.14 265.18 170.58 281.59 170.45 297.98 C 170.68 305.65 170.66 313.34 171.61 320.97 C 172.62 328.58 175.73 336.29 181.85 341.22 C 188.51 346.78 197.52 347.90 205.88 348.17 C 209.00 348.34 209.09 351.95 208.94 354.28 C 204.27 354.80 199.58 354.23 194.90 354.18 C 166.95 353.26 138.99 353.94 111.04 354.61 C 108.87 354.88 107.30 353.35 105.94 351.92 C 107.06 350.79 107.77 348.84 109.61 348.80 C 114.89 348.11 120.41 347.78 125.11 344.99 C 132.94 340.66 136.67 331.64 137.62 323.12 C 138.83 310.13 138.31 297.07 138.76 284.04 C 138.79 243.57 138.85 203.10 138.44 162.64 C 137.90 154.88 138.80 147.06 137.71 139.34 C 135.93 130.18 127.82 123.35 119.00 121.26 C 114.67 120.10 110.15 120.13 105.75 119.45 Z" />
<path fill="#ffffff" d=" M 342.24 117.55 C 340.18 116.41 341.92 113.57 343.93 113.90 C 359.26 113.56 374.62 113.90 389.96 113.74 C 391.96 113.95 394.60 113.21 395.98 115.11 C 396.57 116.60 395.53 117.92 393.97 117.90 C 390.01 118.40 385.73 118.85 382.63 121.66 C 378.88 124.52 378.46 129.61 378.45 133.96 C 378.47 159.99 378.44 186.01 378.46 212.03 C 378.58 216.96 378.86 222.67 382.91 226.12 C 386.39 229.77 391.83 228.95 396.20 230.65 C 395.87 231.27 395.22 232.52 394.89 233.15 C 378.91 233.33 362.93 233.18 346.95 233.24 C 345.03 233.39 341.44 232.68 343.09 230.06 C 347.06 229.12 351.60 229.69 355.01 227.05 C 358.75 224.36 359.85 219.45 359.79 215.09 C 359.73 187.05 359.82 159.02 359.74 130.99 C 359.89 126.35 356.55 122.37 352.53 120.46 C 349.33 118.77 345.68 118.46 342.24 117.55 Z" />
<path fill="#ffffff" d=" M 408.12 117.71 C 405.76 117.31 407.03 113.62 409.13 113.90 C 418.65 113.55 428.19 113.91 437.71 113.75 C 463.76 143.16 490.05 172.35 516.09 201.76 C 515.50 179.85 515.33 157.92 514.80 136.00 C 514.88 131.47 514.71 126.20 510.98 123.00 C 507.61 119.50 502.63 118.78 498.12 117.80 C 496.74 117.64 496.54 115.89 495.73 115.04 C 499.89 113.07 504.57 113.91 509.00 113.77 C 518.00 113.89 527.01 113.53 536.00 113.92 C 537.70 113.80 537.48 116.18 538.26 117.19 C 535.13 118.15 531.84 118.51 528.78 119.68 C 525.46 121.05 523.57 124.48 523.16 127.91 C 522.01 136.21 522.58 144.60 522.46 152.95 C 522.01 178.79 522.33 204.63 522.22 230.47 C 519.67 230.41 517.08 230.70 514.58 230.18 C 485.24 197.74 456.13 165.07 426.77 132.64 C 426.58 150.78 427.18 168.91 427.25 187.05 C 427.57 196.44 427.39 205.86 428.25 215.22 C 428.66 219.63 430.30 224.32 434.12 226.91 C 437.18 228.79 440.86 229.09 444.29 229.94 C 444.23 230.74 444.12 232.34 444.06 233.14 C 431.23 233.27 418.40 233.32 405.57 233.11 C 405.53 228.67 410.86 229.57 413.45 227.42 C 417.98 223.71 418.89 217.36 419.06 211.85 C 420.03 186.91 419.99 161.94 420.01 136.98 C 419.69 132.14 420.89 126.52 417.72 122.39 C 415.51 119.20 411.48 118.88 408.12 117.71 Z" />
<path fill="#ffffff" d=" M 557.09 134.93 C 568.28 121.94 585.32 115.48 602.04 113.81 C 611.71 113.13 621.64 113.12 631.01 115.89 C 637.35 117.67 643.17 120.87 648.69 124.39 C 650.59 125.45 652.58 126.97 654.91 126.52 C 657.86 125.54 658.63 122.15 659.99 119.70 C 660.80 119.76 662.41 119.89 663.22 119.95 C 663.62 129.81 663.57 139.70 663.24 149.57 C 661.20 149.55 659.09 148.94 658.38 146.83 C 652.37 134.63 641.42 124.73 628.20 121.11 C 616.11 117.83 602.63 117.53 591.11 123.00 C 581.00 127.83 573.55 137.03 569.30 147.24 C 562.59 163.50 561.81 182.27 567.84 198.86 C 571.80 210.05 579.77 220.21 590.82 225.03 C 601.36 229.52 613.51 229.78 624.45 226.62 C 629.96 224.51 636.59 221.68 638.49 215.56 C 639.11 208.69 638.64 201.75 638.77 194.86 C 638.95 191.49 637.33 188.17 634.47 186.36 C 630.14 183.66 624.84 183.88 620.00 183.01 C 618.51 182.11 618.25 180.34 619.07 178.88 C 620.62 178.39 622.26 178.24 623.90 178.24 C 638.60 178.27 653.31 178.29 668.02 178.24 C 669.70 178.27 671.48 178.20 673.04 179.02 C 673.03 179.77 673.01 181.27 673.01 182.03 C 669.09 183.65 664.25 182.78 660.89 185.77 C 658.28 187.75 657.61 191.15 657.49 194.23 C 657.31 201.45 657.60 208.68 657.42 215.90 C 657.61 217.42 656.10 218.23 655.15 219.09 C 641.86 229.49 624.85 234.60 608.06 234.26 C 591.89 234.15 575.09 229.94 562.49 219.40 C 551.56 210.20 545.55 196.22 544.38 182.16 C 542.65 165.65 546.00 147.76 557.09 134.93 Z" />
<path fill="#ffffff" d=" M 679.63 114.41 C 684.25 112.50 690.30 113.21 693.56 117.28 C 697.08 121.67 696.74 127.91 694.70 132.87 C 692.13 139.96 684.62 145.14 676.99 144.09 C 676.92 143.51 676.77 142.36 676.69 141.78 C 679.24 140.59 682.09 140.00 684.45 138.40 C 686.56 136.85 687.77 134.48 689.05 132.26 C 685.16 132.39 680.69 133.34 677.46 130.55 C 672.74 126.35 673.52 116.97 679.63 114.41 Z" />
<path fill="#ffffff" d=" M 401.72 251.89 C 411.87 249.11 423.22 248.42 432.95 253.03 C 437.10 254.92 440.04 258.48 443.58 261.22 C 446.08 259.48 448.43 257.31 451.57 256.82 C 451.35 260.87 449.85 264.67 448.66 268.50 C 446.78 274.43 445.03 280.41 443.00 286.29 C 441.88 285.76 439.28 286.68 439.39 284.80 C 439.17 278.17 439.31 271.13 435.81 265.21 C 431.59 257.23 421.91 253.27 413.20 254.69 C 403.04 256.02 394.39 262.35 387.39 269.47 C 374.87 282.66 364.79 298.87 361.51 316.97 C 360.29 325.31 359.85 334.40 363.86 342.10 C 366.55 347.24 372.06 350.60 377.83 350.89 C 386.75 351.31 395.56 348.58 403.41 344.50 C 409.98 341.12 416.65 337.35 421.28 331.43 C 423.28 329.01 424.74 326.17 426.91 323.88 C 427.90 322.72 429.29 322.78 430.31 323.89 C 430.23 326.30 429.40 328.59 428.62 330.84 C 425.76 338.87 422.95 346.92 420.17 354.98 C 419.57 356.03 419.37 357.93 417.85 357.96 C 416.53 358.60 415.58 356.97 415.58 355.88 C 415.05 353.58 415.34 350.94 413.92 348.95 C 412.63 347.34 410.49 348.84 408.91 349.11 C 402.38 351.56 395.97 354.55 388.99 355.47 C 379.28 356.76 368.63 356.36 360.18 350.84 C 351.69 345.69 347.13 335.73 346.79 326.03 C 346.33 312.01 350.55 297.97 358.16 286.23 C 368.20 270.34 383.41 257.06 401.72 251.89 Z" />
<path fill="#ffffff" d=" M 547.03 250.88 C 552.02 250.73 556.95 249.77 561.95 249.70 C 561.84 251.80 561.55 253.93 560.64 255.84 C 552.46 273.94 544.29 292.05 536.17 310.17 C 530.73 322.63 524.65 334.83 519.68 347.47 C 525.79 345.16 529.28 339.34 533.97 335.19 C 534.62 335.26 535.93 335.40 536.59 335.47 C 533.75 341.04 529.42 345.74 524.70 349.78 C 521.30 352.49 517.50 355.11 513.10 355.74 C 510.72 356.08 508.29 354.36 508.07 351.92 C 507.79 349.16 509.20 346.60 510.18 344.12 C 520.84 320.29 531.54 296.47 542.49 272.78 C 544.84 266.92 548.44 261.52 549.75 255.29 C 546.59 254.84 543.41 254.65 540.26 254.19 C 540.62 250.57 544.35 251.14 547.03 250.88 Z" />
<path fill="#ffffff" d=" M 584.08 250.85 C 588.87 250.64 593.59 249.71 598.39 249.77 C 598.29 253.71 596.32 257.19 594.77 260.71 C 585.20 281.83 575.71 302.98 566.19 324.12 C 562.84 331.92 558.82 339.45 556.11 347.50 C 562.20 344.81 566.14 339.28 570.53 334.55 C 570.97 334.94 571.87 335.73 572.32 336.12 C 570.72 340.47 567.11 343.72 564.02 347.06 C 559.62 351.13 554.48 355.62 548.17 355.72 C 544.07 355.35 543.54 350.15 545.20 347.19 C 557.09 320.16 569.39 293.32 581.70 266.48 C 583.25 262.79 585.62 259.31 585.90 255.21 C 582.75 254.81 579.58 254.64 576.44 254.19 C 577.13 250.38 581.23 251.25 584.08 250.85 Z" />
<path fill="#ffffff" d=" M 482.47 276.82 C 488.63 275.63 495.86 275.91 500.62 280.54 C 505.42 285.31 506.59 292.42 506.99 298.90 C 507.77 310.58 503.74 322.04 497.99 332.03 C 492.72 340.78 485.61 348.97 476.10 353.16 C 469.06 356.18 460.06 356.42 453.87 351.40 C 448.11 346.83 446.32 339.04 446.25 332.03 C 446.40 315.60 452.77 299.10 464.39 287.38 C 469.40 282.44 475.53 278.39 482.47 276.82 Z" />
<path fill="#ffffff" d=" M 714.78 278.83 C 718.76 277.01 724.67 275.32 728.03 279.09 C 728.60 281.18 727.69 283.27 727.21 285.28 C 722.14 285.99 717.57 281.68 712.50 283.76 C 710.01 284.20 710.38 287.04 710.69 288.88 C 712.82 299.87 708.13 311.52 699.92 318.89 C 693.75 324.41 685.00 326.56 676.89 325.48 C 673.59 325.13 670.18 324.24 666.92 325.31 C 663.63 325.97 661.49 329.84 662.75 332.98 C 664.45 338.08 669.51 340.78 673.79 343.44 C 682.55 348.41 692.21 353.21 697.64 362.10 C 701.52 367.92 700.38 376.43 695.07 380.99 C 688.45 386.64 679.64 388.94 671.13 389.62 C 661.82 390.09 652.08 389.64 643.54 385.53 C 638.28 383.05 633.70 378.51 632.34 372.73 C 631.01 367.98 632.86 362.81 636.48 359.60 C 642.87 353.69 651.30 350.61 659.54 348.23 C 656.22 345.53 652.76 342.38 651.82 338.01 C 650.56 333.11 653.27 327.97 657.37 325.29 C 660.30 323.07 664.02 322.38 667.14 320.50 C 666.02 316.99 663.50 313.93 663.35 310.12 C 662.10 297.32 671.43 285.58 682.62 280.45 C 690.32 276.90 700.02 276.34 707.32 281.12 C 709.96 282.69 712.36 279.68 714.78 278.83 Z" />
<path fill="#ffffff" d=" M 630.21 280.07 C 636.09 278.23 642.91 277.21 648.55 280.30 C 653.06 283.18 653.36 289.36 651.99 294.02 C 650.43 299.51 645.65 303.21 640.85 305.83 C 629.14 312.13 615.88 314.25 603.09 317.29 C 600.31 322.81 597.96 328.76 597.73 335.01 C 597.76 339.86 599.68 345.73 604.77 347.35 C 611.35 349.39 618.30 346.63 623.60 342.71 C 626.67 340.60 628.97 337.59 631.90 335.32 C 632.47 335.47 633.61 335.77 634.18 335.92 C 634.04 338.30 632.03 339.91 630.62 341.64 C 623.61 349.45 613.70 355.27 602.98 355.28 C 597.94 355.50 592.61 353.56 589.53 349.43 C 586.17 345.02 585.46 339.16 586.25 333.81 C 587.92 320.01 595.40 307.63 604.63 297.53 C 611.86 290.11 620.31 283.47 630.21 280.07 Z" />
<path fill="#ffffff" d=" M 757.10 282.10 C 763.17 279.16 770.16 277.33 776.88 278.88 C 780.03 279.60 783.03 281.83 783.94 285.03 C 785.38 290.27 783.99 296.24 780.17 300.15 C 774.97 305.71 767.61 308.35 760.61 310.85 C 752.22 313.60 743.52 315.24 734.91 317.15 C 731.23 324.58 727.45 333.29 730.61 341.58 C 732.37 346.67 738.36 348.79 743.34 347.87 C 751.87 346.72 758.34 340.44 764.23 334.69 C 764.66 335.77 766.42 336.92 765.23 338.10 C 759.00 346.70 749.57 353.35 738.95 355.00 C 733.41 355.75 727.03 355.35 722.84 351.19 C 718.85 347.64 717.51 342.05 717.76 336.90 C 718.30 327.29 721.75 318.00 726.90 309.92 C 734.24 298.20 744.64 288.23 757.10 282.10 Z" />
<path fill="#ee2d24" d=" M 489.30 281.28 C 493.10 280.21 497.57 281.81 499.21 285.56 C 502.04 293.05 499.83 301.21 497.36 308.48 C 492.48 321.69 485.21 334.29 474.89 343.99 C 470.62 347.79 464.61 351.76 458.74 349.18 C 453.89 346.75 453.85 340.51 454.37 335.85 C 456.32 321.42 462.77 307.86 471.25 296.14 C 475.98 289.96 481.53 283.49 489.30 281.28 Z" />
<path fill="#ee2d24" d=" M 696.09 281.33 C 697.84 281.37 699.89 281.43 701.18 282.80 C 703.40 284.84 703.24 288.18 702.96 290.93 C 701.64 299.93 696.75 308.03 690.73 314.68 C 687.38 318.41 682.48 321.51 677.27 320.69 C 673.35 319.91 672.01 315.51 672.24 312.01 C 672.61 304.30 676.49 297.19 681.30 291.33 C 685.09 286.74 689.88 282.01 696.09 281.33 Z" />
<path fill="#ee2d24" d=" M 624.03 288.99 C 627.48 286.14 631.56 283.57 636.17 283.42 C 638.53 283.42 641.37 284.10 642.43 286.47 C 644.30 291.62 641.68 297.34 637.53 300.55 C 628.43 307.43 616.82 309.77 605.81 311.63 C 610.63 303.18 616.75 295.45 624.03 288.99 Z" />
<path fill="#ee2d24" d=" M 755.39 289.29 C 758.59 286.37 762.56 284.15 766.89 283.47 C 769.85 283.13 773.71 284.08 774.39 287.45 C 775.95 293.42 771.82 299.13 766.96 302.15 C 758.22 307.85 747.71 309.78 737.65 311.76 C 742.10 303.25 748.37 295.81 755.39 289.29 Z" />
<path fill="#ee2d24" d=" M 647.22 361.35 C 651.59 356.66 657.65 354.14 663.41 351.61 C 670.77 355.19 677.64 359.78 683.69 365.30 C 686.22 367.79 688.78 371.13 688.04 374.92 C 687.40 379.37 683.00 381.88 679.11 383.16 C 672.58 385.08 665.50 385.42 658.86 383.89 C 653.23 382.58 647.73 379.20 645.27 373.80 C 643.29 369.77 644.00 364.52 647.22 361.35 Z" />
<path fill="#ffffff" d=" M 258.44 394.79 C 272.20 392.43 287.10 394.93 298.66 403.02 C 312.59 412.38 320.50 429.38 320.04 446.01 C 320.10 459.51 315.73 473.39 306.32 483.30 C 297.78 492.51 285.47 497.68 273.04 498.51 C 257.42 499.92 240.74 494.77 230.16 482.84 C 221.50 473.39 217.04 460.58 216.68 447.86 C 215.88 432.30 222.29 416.38 234.20 406.22 C 241.05 400.31 249.53 396.35 258.44 394.79 Z" />
<path fill="#ffffff" d=" M 447.03 394.00 C 463.34 393.99 479.66 394.01 495.98 393.99 C 509.33 393.94 523.42 395.62 534.87 403.02 C 544.23 409.06 550.10 419.43 551.99 430.26 C 554.93 446.45 553.60 464.80 542.85 478.03 C 531.95 491.63 513.97 497.30 497.07 497.71 C 480.68 497.73 464.28 497.79 447.89 497.69 C 445.61 498.13 445.33 496.03 445.18 494.32 C 448.56 493.57 452.49 493.82 455.25 491.37 C 458.03 488.74 458.04 484.64 458.25 481.09 C 458.30 457.05 458.23 433.01 458.28 408.97 C 458.35 406.19 457.85 403.20 455.85 401.12 C 453.52 398.75 450.08 398.27 446.96 397.77 C 446.72 397.33 446.24 396.46 446.00 396.02 C 446.25 395.51 446.77 394.50 447.03 394.00 Z" />
<path fill="#ffffff" d=" M 613.12 394.15 C 628.40 392.66 644.61 397.40 655.55 408.43 C 665.27 417.92 670.47 431.53 670.47 445.03 C 670.70 459.42 665.89 474.24 655.55 484.53 C 635.38 504.15 598.49 503.68 579.88 482.10 C 570.87 472.04 566.81 458.28 566.97 444.94 C 566.97 431.35 572.52 417.75 582.35 408.31 C 590.47 400.09 601.69 395.30 613.12 394.15 Z" />
<path fill="#ffffff" d=" M 115.25 397.74 C 114.10 396.03 115.00 394.11 117.21 394.61 C 129.80 394.42 142.40 394.64 154.99 394.51 C 157.10 394.38 159.18 394.83 161.14 395.62 C 160.89 396.23 160.40 397.44 160.15 398.05 C 155.80 398.21 150.80 399.21 148.24 403.14 C 146.26 405.70 146.77 409.06 146.71 412.07 C 146.78 435.76 146.70 459.45 146.74 483.14 C 146.62 486.45 148.62 489.71 151.75 490.90 C 157.22 493.04 163.22 492.86 169.00 493.01 C 178.98 492.95 189.73 492.15 198.07 486.07 C 204.57 481.50 208.19 474.15 211.06 466.98 C 211.86 466.83 213.44 466.55 214.23 466.40 C 212.96 477.01 210.37 487.42 208.71 497.97 C 181.47 498.05 154.22 497.96 126.98 498.01 C 123.27 498.03 119.54 498.14 115.88 497.46 C 115.96 496.67 116.11 495.10 116.19 494.32 C 119.64 493.73 123.45 493.61 126.25 491.23 C 129.42 488.91 130.58 484.80 130.55 481.04 C 130.53 457.36 130.56 433.68 130.54 410.00 C 130.52 406.09 128.86 401.82 125.18 400.02 C 122.15 398.27 118.55 398.51 115.25 397.74 Z" />
<path fill="#ffffff" d=" M 325.93 394.73 C 335.25 394.28 344.61 394.68 353.95 394.55 C 375.90 420.45 397.81 446.38 419.82 472.22 C 419.84 459.78 419.49 447.35 419.51 434.91 C 418.87 425.44 419.78 415.92 418.75 406.47 C 417.99 401.22 412.71 398.00 407.73 397.74 C 406.05 397.52 402.05 397.40 404.01 394.75 C 416.26 394.37 428.56 394.47 440.83 394.72 C 440.61 395.29 440.18 396.42 439.96 396.99 C 436.25 398.04 431.69 397.69 428.99 400.95 C 426.62 403.24 426.11 406.66 426.02 409.80 C 426.04 426.54 425.55 443.27 425.74 460.01 C 425.95 472.59 425.25 485.16 425.47 497.74 C 423.65 497.73 421.82 497.73 420.01 497.74 C 394.16 467.40 368.39 436.99 342.45 406.73 C 343.00 429.15 342.84 451.58 343.23 474.00 C 343.16 480.15 342.56 487.74 348.05 491.94 C 350.59 494.73 355.54 492.86 357.60 495.98 C 356.61 498.74 353.23 497.42 351.01 497.76 C 342.02 497.38 332.90 498.40 323.98 497.25 C 323.99 496.69 323.99 495.56 324.00 494.99 C 326.63 493.94 329.89 494.20 332.05 492.12 C 334.68 489.48 335.79 485.69 335.92 482.05 C 336.23 458.70 336.15 435.33 336.57 411.97 C 336.61 407.77 336.90 402.82 333.46 399.75 C 331.06 398.21 328.05 398.32 325.50 397.15 C 325.61 396.54 325.82 395.34 325.93 394.73 Z" />
<path fill="#ffffff" d=" M 675.81 394.68 C 685.04 394.33 694.30 394.67 703.54 394.53 C 725.60 420.41 747.53 446.40 769.57 472.30 C 769.42 451.49 768.97 430.69 768.77 409.88 C 768.86 406.29 767.73 402.43 764.64 400.31 C 761.65 397.74 757.50 397.98 753.89 397.13 C 752.56 396.38 753.43 394.27 754.86 394.60 C 766.84 394.64 778.85 394.21 790.82 394.86 C 789.87 398.48 785.61 397.32 782.94 398.37 C 777.90 399.55 775.53 405.12 775.75 409.89 C 775.40 439.17 775.27 468.45 775.26 497.73 C 773.43 497.73 771.61 497.74 769.80 497.75 C 743.86 467.47 718.14 437.01 692.19 406.74 C 692.60 430.49 692.60 454.24 692.98 477.99 C 692.83 482.60 693.30 487.80 696.84 491.18 C 699.33 493.85 703.19 494.16 706.61 494.55 C 706.58 495.59 706.55 496.64 706.53 497.69 C 695.55 497.71 684.56 497.87 673.58 497.61 C 673.75 496.63 673.98 495.66 674.28 494.72 C 676.83 493.88 679.89 493.96 681.89 491.91 C 685.25 488.58 685.78 483.55 685.78 479.07 C 685.65 460.05 686.17 441.05 686.01 422.04 C 685.85 415.48 687.41 408.55 685.10 402.24 C 683.47 397.93 678.19 398.92 675.09 396.83 C 675.27 396.29 675.63 395.22 675.81 394.68 Z" />
<path fill="#ee2d24" d=" M 262.31 399.23 C 271.32 397.48 281.01 400.09 287.93 406.12 C 295.42 412.70 300.02 422.11 301.91 431.80 C 303.95 441.50 303.46 451.54 302.04 461.29 C 300.35 471.54 296.13 482.15 287.33 488.31 C 275.64 496.11 258.47 495.83 248.05 485.90 C 237.65 475.94 233.87 460.95 233.71 446.96 C 233.33 434.73 235.72 422.01 242.77 411.80 C 247.42 405.39 254.37 400.40 262.31 399.23 Z" />
<path fill="#ee2d24" d=" M 479.44 399.75 C 491.78 397.53 505.32 398.35 516.52 404.48 C 523.68 408.34 529.19 414.92 532.28 422.39 C 536.75 433.43 536.91 445.73 535.12 457.36 C 533.41 467.88 528.50 478.31 519.72 484.72 C 512.09 490.39 502.41 492.78 492.99 492.57 C 488.38 492.45 483.39 493.20 479.22 490.77 C 475.30 488.37 474.22 483.35 474.23 479.06 C 474.25 455.08 474.18 431.10 474.26 407.11 C 474.12 403.79 476.13 400.59 479.44 399.75 Z" />
<path fill="#ee2d24" d=" M 610.50 399.65 C 619.77 397.24 630.13 399.33 637.49 405.54 C 647.68 413.93 652.56 427.17 653.45 440.05 C 653.96 451.44 653.26 463.17 648.91 473.83 C 645.82 481.46 639.95 488.10 632.26 491.27 C 622.55 495.06 610.81 494.84 602.06 488.75 C 592.61 482.19 587.41 471.11 585.32 460.07 C 582.94 446.48 583.40 431.97 588.93 419.16 C 592.87 409.98 600.59 402.08 610.50 399.65 Z" />
<path fill="#ffffff" d=" M 118.01 534.26 C 336.83 534.27 555.65 534.27 774.47 534.26 C 774.45 536.32 774.44 538.39 774.45 540.46 C 555.64 540.44 336.82 540.46 118.00 540.45 C 118.00 538.38 118.00 536.32 118.01 534.26 Z" />
<path fill="#ffffff" d=" M 118.00 554.00 C 336.82 554.00 555.64 554.00 774.45 554.00 C 774.45 558.82 774.45 563.64 774.46 568.46 C 555.64 568.45 336.82 568.46 118.00 568.45 C 118.00 563.63 118.00 558.82 118.00 554.00 Z" />
</svg>
